PathFileType	4	(X/Y/Z)	Patient4_TMGait_0pt8_01_right_15.trc.trc
DataRate	CameraRate	NumFrames	NumMarkers	Units	OrigDataRate	OrigDataStartFrame	OrigNumFrames
86.419753086420	86.419753086420	6	33	mm	86.419753086420	1	       141
Frame#	Time	Sacral			L.Shoulder			Chest			R.Shoulder			Neck			R.ASIS			L.ASIS			R.Thigh.Superior			R.Thigh.Lateral			R.Thigh.Inferior			R.Patella			L.Thigh.Superior			L.Thigh.Lateral			L.Thigh.Inferior			L.Patella			L.Shank.Superior			L.Shank.Lateral			L.Shank.Inferior			R.Shank.Superior			R.Shank.Lateral			R.Shank.Inferior			R.Heel			R.Midfoot.Superior			R.Midfoot.Lateral			R.Toe			L.Heel			L.Midfoot.Lateral			L.Midfoot.Superior			L.Toe			L.Elbow			L.Wrist			R.Elbow			R.Wrist			
		X1	Y1	Z1	X2	Y2	Z2	X3	Y3	Z3	X4	Y4	Z4	X5	Y5	Z5	X6	Y6	Z6	X7	Y7	Z7	X8	Y8	Z8	X9	Y9	Z9	X10	Y10	Z10	X11	Y11	Z11	X12	Y12	Z12	X13	Y13	Z13	X14	Y14	Z14	X15	Y15	Z15	X16	Y16	Z16	X17	Y17	Z17	X18	Y18	Z18	X19	Y19	Z19	X20	Y20	Z20	X21	Y21	Z21	X22	Y22	Z22	X23	Y23	Z23	X24	Y24	Z24	X25	Y25	Z25	X26	Y26	Z26	X27	Y27	Z27	X28	Y28	Z28	X29	Y29	Z29	X30	Y30	Z30	X31	Y31	Z31	X32	Y32	Z32	X33	Y33	Z33	

1	16.560000000000	900.271664162849	1009.484808015233	413.447399035308	1076.928158480428	1434.412080666943	231.992275126063	1177.750404264418	1368.598678144133	396.279748390526	1090.084782164093	1444.759343612760	567.918336349961	1060.284100203091	1498.225430938342	387.149516636219	1123.532867319468	945.430925296119	535.232874173344	1117.416082167664	965.509283340026	261.141561950033	1201.454367635017	768.654927689367	515.222166912891	1150.778646165489	649.249115090812	586.787520482538	1245.571649329450	606.136478860908	516.118308187500	1256.205544919940	491.253356958285	539.265797482154	1165.336087604430	754.098325263584	288.027345802736	1075.701440448931	638.359766474238	230.697011662231	1161.193327783298	560.072713517974	291.879077498724	1161.267614080088	491.138986969323	302.520265738397	1134.581596505409	418.980987908132	295.850627105311	1044.442918895258	303.957065598362	247.347939030531	1096.029454327299	193.496184280458	318.931447053636	1174.281817772335	421.145418145168	539.334656945703	1045.348707319148	392.951172655885	590.687844884521	1025.170722143457	285.813432359452	539.992751137800	820.781153776973	238.259971424316	496.078487633272	982.791049049900	172.097441358877	549.940999715316	870.737257620132	176.862125999225	574.768355288430	1039.910293001007	57.979381355885	583.771308222529	969.944011458015	38.963125053148	367.448597142687	1040.368583414768	35.488071284469	283.743751689440	1124.156671307845	96.344076203116	308.190379686236	1251.615583556165	46.004204131353	274.421971371146	1038.092623799437	1081.974237527896	116.720826041210	1123.430341015622	834.929430488072	124.950957285295	1073.109029474867	1098.107081798780	686.930157081235	1311.266297079669	1022.918776123287	632.907272228776	
2	16.571571428571	898.772728191793	1009.133594073996	411.358254792116	1077.617653152649	1434.702085585189	231.836145289752	1176.570680458448	1368.550390341603	397.086520007788	1087.092409981213	1444.235184462456	567.909358084900	1059.675131201558	1498.341745460185	386.933278826976	1121.608911826382	946.292864405398	534.992155908224	1117.392390118617	966.051407915739	260.630064147593	1202.735555038571	773.094962596733	514.566914056238	1155.705878038264	652.847248170268	586.753364050079	1250.976880175239	611.803305902443	515.589147526897	1264.869970978194	497.744376201082	539.250729671807	1162.512386542763	753.116522564333	288.095462579214	1071.413686880639	638.317661305062	230.063840706237	1155.280644724182	559.024259854510	291.831349552555	1154.256643085274	490.211880522509	302.642784855600	1127.347535636997	418.358418661187	295.749018894816	1036.648011207679	303.868171389007	246.954561995192	1087.169181452184	193.197348814807	318.971278498254	1185.893658274692	425.073609693892	539.712776052837	1058.719536618130	391.500105131974	591.394217763264	1043.103735351109	283.594058559431	541.025421781152	841.447322215920	227.190013941419	497.649568429988	1006.059098819369	168.816990891153	552.147388407444	893.967247760006	168.406347368082	576.478843834607	1067.596099417320	56.916722224317	585.511230607191	960.101928932434	38.987308474465	367.414813604264	1030.628976308388	35.468261017631	283.709731902578	1114.518398494488	96.256085258346	308.170580837902	1241.915410859799	45.767087394453	274.428188067519	1051.964978735369	1083.238839322278	112.652614806608	1149.543629675809	841.693545994826	120.892077670749	1059.915550592134	1098.177267288308	685.442714548793	1287.397454036767	998.793735974127	638.761190231940	
3	16.583142857143	897.286201334147	1008.772892681819	409.342718788985	1078.304374816803	1434.983536978902	231.709264357556	1175.413485999833	1368.484387662854	397.899206701489	1084.162346940679	1443.694670765142	567.925538108502	1059.076202686242	1498.442633341703	386.750404051230	1119.713162361584	947.115942995230	534.760815017285	1117.400747639012	966.608203707602	260.102414543561	1203.949735690904	777.422250741195	513.916558378524	1160.495803329699	656.363351129750	586.702033613511	1256.186477522830	617.322927146575	515.035048035872	1273.288059374825	504.128553576299	539.217254005368	1159.704505790896	752.146783592653	288.173024775073	1067.146000310514	638.278678119427	229.446687681301	1149.384932815977	557.988048203479	291.784948052284	1147.268335917546	489.302645533477	302.764901959146	1120.154344508424	417.743323634494	295.643107648583	1028.904987672634	303.774430596497	246.563027572811	1078.399449376297	192.906727416357	319.009053199171	1197.269790427653	428.916467890254	540.092525004730	1071.915442887143	389.939551595543	592.118575870392	1060.913187256495	281.288314766786	542.084572579461	862.060060273397	216.003533037556	499.276491387327	1029.225225900185	165.427710576945	554.335822213267	917.141436965977	159.869571776393	578.246333774744	1095.209919974356	55.841316883381	587.310889685680	950.383351746012	39.006078677814	367.378633222982	1021.004505468606	35.445015494568	283.674854964628	1104.990569694385	96.174507452765	308.149696115373	1232.332258108154	45.542596414850	274.433485941707	1065.633118231970	1084.593414193229	108.691100774609	1175.287240628968	848.578043514508	116.976896076531	1047.036278323101	1098.191191408756	683.960253543510	1263.437963318148	975.129361632200	644.542000001424	
4	16.594714285714	895.833465340058	1008.382413988841	407.461561612345	1078.996450751573	1435.241546593172	231.659447630180	1174.304341016582	1368.369518898682	398.742847343396	1081.350904983633	1443.103454345967	568.007075395569	1058.499918926421	1498.498847899553	386.650825641999	1117.870735363258	947.845597599472	534.554650627424	1117.471414866605	967.172679705899	259.559075448873	1205.008287644432	781.488827204895	513.281750450114	1164.969636685486	659.677931825797	586.631862160447	1260.976577929092	622.512857153398	514.451735875109	1281.195767189168	510.291974443824	539.153463038283	1156.885244170105	751.173921307203	288.263834970197	1062.849677393107	638.248480706980	228.853018259673	1143.435142916690	556.964971123990	291.733842888330	1140.231025870370	488.423902769076	302.871121068250	1112.939689128923	417.149116335345	295.518512888977	1021.160696439498	303.676640143507	246.168982336533	1069.707709098920	192.637260148234	319.036714429702	1208.211074264762	432.594895349787	540.480478022953	1084.884004787621	388.130000052167	592.896271395995	1078.651508542799	278.830816033718	543.205115006660	882.881372155291	204.533977303451	501.028725177618	1052.451193136051	161.886691141948	556.504432149275	940.525309554538	151.170938168077	580.133891404382	1122.964337610792	54.885364317497	589.217948592457	940.808624936456	39.017177848207	367.338629283799	1011.508092304239	35.416037152850	283.638381256830	1095.582841388123	96.105708853578	308.124494142199	1222.879331109706	45.344113828791	274.437422087862	1078.957488285555	1086.148665437375	104.926578148063	1200.445684129118	855.852286891768	113.346408236648	1034.689017417856	1098.111421479143	682.489960949798	1239.086524369893	952.405012638707	650.192821555355	
5	16.606285714286	894.437138386502	1007.945587449379	405.758842491060	1079.704979535875	1435.462819442941	231.731541933593	1173.266895671978	1368.176759173333	399.643350227004	1078.704155804094	1442.429266433052	568.191073687773	1057.958171066768	1498.483220634648	386.680016679982	1116.098756429005	948.427814057228	534.384076764992	1117.615053331478	967.723888569543	259.012424567324	1205.833080529359	785.160742940630	512.672675604241	1168.962408421683	662.677512945145	586.543989622775	1265.156430832737	627.209755915093	513.846807832346	1288.369239338491	516.133375176097	539.053456641885	1154.021121894745	750.176733769173	288.368452997652	1058.463966326799	638.234392745628	228.284682313629	1137.346884422512	555.953090298491	291.670020347498	1133.059707158097	487.585971198762	302.942134500660	1105.623217308336	416.590690829906	295.359690033228	1013.342482350999	303.578094613164	245.767532468041	1061.054893768624	192.400780476726	319.045772642049	1218.561436149068	436.044209231233	540.881865780771	1097.616771524309	385.956457947786	593.762644460415	1096.405270808085	276.186065608458	544.418483354607	904.214306808491	192.656979868435	502.963723506322	1075.939083154802	158.196252271678	558.660278391014	964.420237588662	142.264957100819	582.190298640846	1151.095777293077	54.207004804081	591.260381291748	931.366686274227	39.019281911469	367.293874745818	1002.123535238779	35.379578114997	283.600185504827	1086.277297132256	96.054692913024	308.091144949091	1213.540090453160	45.182379220443	274.439909477274	1091.830917015841	1087.995350618349	101.427234698891	1224.874133118668	863.772028623719	110.112143909222	1023.021822789962	1097.917774680688	681.042290989527	1214.061314957198	931.040200131358	655.662930862145	
6	16.617857142857	893.122648113172	1007.450419173716	404.260286137716	1080.441652974477	1435.635712832816	231.963541081854	1172.322586749135	1367.881702979386	400.624094531056	1076.257884701360	1441.645476908303	568.508118399301	1057.462222948493	1498.372320779195	386.875036980293	1114.410877343460	948.815032283164	534.256743514068	1117.819885746369	968.225514520257	258.488680469539	1206.362027677405	788.322340271521	512.100347673133	1172.330834249776	665.257828949412	586.443997268312	1268.579421476598	631.275125266524	513.241522677642	1294.633412955647	521.562148754504	538.918725807138	1151.080096317669	749.130314665690	288.483517979760	1053.928719522816	638.243935959198	227.739045443204	1131.040287972609	554.948995507090	291.584231235794	1125.675812765479	486.796594345268	302.956247235435	1098.124717083279	416.083733202563	295.152025271016	1005.376503632005	303.484665638663	245.354412353557	1052.391181025165	192.207278645208	319.028095414987	1228.205595284791	439.214036582978	541.299722346369	1110.129676898852	383.343861349925	594.747338998537	1114.257155515408	273.358982811635	545.745782556232	926.341269938432	180.326514580870	505.115642635674	1099.872503639104	154.415195288777	560.813067789038	989.096567063581	133.165804557324	584.439202416689	1179.793651238462	53.983573300732	593.437788552178	922.028644072015	39.012565647781	367.244350858355	992.819658988019	35.334988687349	283.560719793661	1077.042502010804	96.024411153096	308.045808891468	1204.282042224744	45.064568881060	274.441276134702	1104.168653480974	1090.190921163138	98.237958988388	1248.472761434598	872.544172392884	107.350749994491	1012.113734673922	1097.612757782509	679.634264581672	1188.173608195195	911.393933192784	660.903758754647	
